<svg xmlns="http://www.w3.org/2000/svg" width="48" height="48" viewBox="0 0 48 48">
    <g fill="none" fill-rule="evenodd">
        <g>
            <g>
                <path fill="#FEE500" d="M48 24c0 13.255-10.745 24-24 24S0 37.255 0 24 10.745 0 24 0s24 10.745 24 24" transform="translate(-250 -1924) translate(250 1924)"/>
                <path fill="#000" d="M24 10.077c-8.781 0-15.9 5.613-15.9 12.537 0 4.476 2.976 8.404 7.453 10.622-.244.84-1.565 5.404-1.618 5.762 0 0-.032.27.143.372.174.103.38.023.38.023.5-.07 5.8-3.793 6.718-4.44.916.13 1.86.198 2.824.198 8.781 0 15.9-5.613 15.9-12.537S32.781 10.077 24 10.077" transform="translate(-250 -1924) translate(250 1924)"/>
                <path fill="#FEE500" d="M15.209 26.99c-.506 0-.917-.393-.917-.876v-5.45H12.86c-.496 0-.9-.402-.9-.898 0-.495.404-.898.9-.898h4.698c.496 0 .9.403.9.898 0 .496-.404.899-.9.899h-1.432v5.45c0 .482-.411.875-.917.875M21.553 23.76l-.917-2.604-.916 2.603h1.833zm1.7 3.218c-.383 0-.676-.155-.764-.405l-.454-1.189h-2.797l-.455 1.19c-.088.25-.38.404-.763.404-.202 0-.403-.043-.583-.126-.253-.117-.496-.438-.217-1.303l2.194-5.775c.155-.44.624-.892 1.222-.906.599.014 1.068.466 1.223.907l2.194 5.772c.279.868.036 1.189-.217 1.305-.18.083-.381.126-.583.126zM25.529 26.857c-.485 0-.88-.378-.88-.841v-6.23c0-.506.42-.918.937-.918.516 0 .937.412.937.918v5.389h1.949c.485 0 .88.377.88.84 0 .464-.395.842-.88.842h-2.943zM30.625 26.978c-.506 0-.917-.411-.917-.917v-6.275c0-.506.411-.918.917-.918s.918.412.918.918v1.971l2.559-2.56c.132-.13.312-.203.509-.203.229 0 .459.099.63.27.161.161.257.368.27.582.014.217-.058.415-.202.559l-2.09 2.09 2.258 2.991c.147.196.21.437.176.68-.034.243-.16.457-.356.605-.16.121-.351.185-.552.185-.29 0-.558-.133-.733-.365l-2.15-2.85-.32.318v2.002c0 .506-.411.917-.917.917" transform="translate(-250 -1924) translate(250 1924)"/>
            </g>
        </g>
    </g>
</svg>
