<?xml version="1.0" encoding="utf-8"?>
<!-- Generator: Adobe Illustrator 24.3.0, SVG Export Plug-In . SVG Version: 6.00 Build 0)  -->
<svg version="1.1" id="레이어_1" xmlns="http://www.w3.org/2000/svg" xmlns:xlink="http://www.w3.org/1999/xlink" x="0px"
	 y="0px" viewBox="0 0 150 150" style="enable-background:new 0 0 150 150;" xml:space="preserve">
<style type="text/css">
	.st0{fill:#ED763F;}
	.st1{fill:#231815;}
</style>
<g>
	<circle class="st0" cx="75" cy="75" r="75"/>
	<path class="st1" d="M99.3,83.5c-5.9,0-11.1,2.9-14.3,7.4L61.1,79.6c0.4-1.5,0.6-3,0.6-4.6c0-1.6-0.2-3.2-0.6-4.6L84.9,59
		c3.2,4.5,8.4,7.4,14.3,7.4c9.7,0,17.6-7.9,17.6-17.6S109,31.2,99.3,31.2s-17.6,7.9-17.6,17.6c0,1.6,0.2,3.2,0.6,4.6L58.4,64.8
		c-3.2-4.5-8.4-7.4-14.3-7.4c-9.7,0-17.6,7.9-17.6,17.6s7.9,17.6,17.6,17.6c5.9,0,11.1-2.9,14.3-7.4l23.9,11.3
		c-0.4,1.5-0.6,3-0.6,4.6c0,9.7,7.9,17.6,17.6,17.6s17.6-7.9,17.6-17.6S109,83.5,99.3,83.5z M99.3,37.4c6.3,0,11.5,5.1,11.5,11.5
		s-5.1,11.5-11.5,11.5s-11.5-5.1-11.5-11.5S93,37.4,99.3,37.4z M44.1,86.5c-6.3,0-11.5-5.1-11.5-11.5c0-6.3,5.1-11.5,11.5-11.5
		S55.6,68.7,55.6,75C55.6,81.3,50.4,86.5,44.1,86.5z M99.3,112.6c-6.3,0-11.5-5.1-11.5-11.5S93,89.7,99.3,89.7s11.5,5.1,11.5,11.5
		S105.6,112.6,99.3,112.6z"/>
</g>
</svg>
